<svg width="330" height="261" viewBox="0 0 330 261" fill="none" xmlns="http://www.w3.org/2000/svg">
<path d="M141.67 3.26518H143.284V10.876C143.284 11.5644 143.148 12.1532 142.876 12.6424C142.606 13.1316 142.227 13.5055 141.738 13.7641C141.249 14.0192 140.676 14.1468 140.019 14.1468C139.414 14.1468 138.871 14.0367 138.389 13.8165C137.91 13.5964 137.531 13.2767 137.251 12.8573C136.975 12.4345 136.837 11.9208 136.837 11.3163H138.446C138.446 11.6133 138.514 11.8702 138.651 12.0868C138.791 12.3035 138.981 12.4729 139.222 12.5952C139.467 12.7141 139.746 12.7735 140.061 12.7735C140.403 12.7735 140.693 12.7018 140.931 12.5586C141.172 12.4118 141.355 12.1969 141.481 11.9138C141.607 11.6308 141.67 11.2848 141.67 10.876V3.26518ZM146.386 14H144.667L148.53 3.26518H150.401L154.264 14H152.545L149.51 5.21506H149.426L146.386 14ZM146.674 9.79623H152.252V11.159H146.674V9.79623ZM164.317 3.26518V14H162.828L157.371 6.1271H157.272V14H155.652V3.26518H157.151L162.613 11.1486H162.713V3.26518H164.317ZM170.114 14V12.8259L173.746 9.0624C174.134 8.65355 174.454 8.29538 174.706 7.98787C174.961 7.67687 175.151 7.38159 175.277 7.10204C175.403 6.82248 175.466 6.52546 175.466 6.21096C175.466 5.85453 175.382 5.54702 175.214 5.28844C175.046 5.02636 174.818 4.82543 174.527 4.68565C174.237 4.54238 173.911 4.47075 173.547 4.47075C173.163 4.47075 172.827 4.54937 172.541 4.70662C172.254 4.86387 172.034 5.08576 171.88 5.3723C171.727 5.65885 171.65 5.99431 171.65 6.37869H170.104C170.104 5.72524 170.254 5.1539 170.554 4.66469C170.855 4.17547 171.267 3.79633 171.791 3.52726C172.316 3.25469 172.911 3.11841 173.579 3.11841C174.253 3.11841 174.847 3.25294 175.361 3.52201C175.878 3.78759 176.282 4.15101 176.572 4.61227C176.862 5.07004 177.007 5.58721 177.007 6.16379C177.007 6.56215 176.932 6.95178 176.781 7.33267C176.635 7.71356 176.378 8.13813 176.011 8.60638C175.644 9.07114 175.134 9.63548 174.48 10.2994L172.347 12.5323V12.611H177.18V14H170.114ZM182.741 14.1782C181.913 14.1747 181.205 13.9563 180.618 13.523C180.031 13.0897 179.582 12.459 179.271 11.6308C178.96 10.8026 178.805 9.80496 178.805 8.63783C178.805 7.47419 178.96 6.48003 179.271 5.65535C179.586 4.83067 180.037 4.20168 180.624 3.76837C181.214 3.33506 181.92 3.11841 182.741 3.11841C183.562 3.11841 184.267 3.33681 184.854 3.77361C185.441 4.20692 185.89 4.83591 186.201 5.66059C186.515 6.48178 186.672 7.47419 186.672 8.63783C186.672 9.80846 186.517 10.8079 186.206 11.636C185.895 12.4607 185.446 13.0915 184.859 13.5283C184.272 13.9616 183.566 14.1782 182.741 14.1782ZM182.741 12.7787C183.468 12.7787 184.036 12.424 184.445 11.7147C184.857 11.0053 185.063 9.97968 185.063 8.63783C185.063 7.74675 184.969 6.99371 184.78 6.37869C184.595 5.76018 184.328 5.29193 183.978 4.97394C183.632 4.65246 183.22 4.49171 182.741 4.49171C182.018 4.49171 181.45 4.84814 181.038 5.561C180.625 6.27386 180.417 7.29947 180.414 8.63783C180.414 9.5324 180.507 10.2889 180.692 10.9074C180.88 11.5225 181.148 11.989 181.494 12.307C181.84 12.6215 182.256 12.7787 182.741 12.7787ZM188.37 14V12.8259L192.002 9.0624C192.39 8.65355 192.71 8.29538 192.961 7.98787C193.216 7.67687 193.407 7.38159 193.533 7.10204C193.658 6.82248 193.721 6.52546 193.721 6.21096C193.721 5.85453 193.637 5.54702 193.47 5.28844C193.302 5.02636 193.073 4.82543 192.783 4.68565C192.493 4.54238 192.166 4.47075 191.803 4.47075C191.418 4.47075 191.083 4.54937 190.796 4.70662C190.51 4.86387 190.29 5.08576 190.136 5.3723C189.982 5.65885 189.905 5.99431 189.905 6.37869H188.359C188.359 5.72524 188.509 5.1539 188.81 4.66469C189.11 4.17547 189.523 3.79633 190.047 3.52726C190.571 3.25469 191.167 3.11841 191.834 3.11841C192.509 3.11841 193.103 3.25294 193.616 3.52201C194.134 3.78759 194.537 4.15101 194.827 4.61227C195.117 5.07004 195.262 5.58721 195.262 6.16379C195.262 6.56215 195.187 6.95178 195.037 7.33267C194.89 7.71356 194.633 8.13813 194.266 8.60638C193.899 9.07114 193.389 9.63548 192.736 10.2994L190.602 12.5323V12.611H195.435V14H188.37ZM197.259 14V12.8259L200.892 9.0624C201.28 8.65355 201.599 8.29538 201.851 7.98787C202.106 7.67687 202.297 7.38159 202.422 7.10204C202.548 6.82248 202.611 6.52546 202.611 6.21096C202.611 5.85453 202.527 5.54702 202.36 5.28844C202.192 5.02636 201.963 4.82543 201.673 4.68565C201.383 4.54238 201.056 4.47075 200.693 4.47075C200.308 4.47075 199.973 4.54937 199.686 4.70662C199.4 4.86387 199.18 5.08576 199.026 5.3723C198.872 5.65885 198.795 5.99431 198.795 6.37869H197.249C197.249 5.72524 197.399 5.1539 197.7 4.66469C198 4.17547 198.413 3.79633 198.937 3.52726C199.461 3.25469 200.057 3.11841 200.724 3.11841C201.399 3.11841 201.993 3.25294 202.506 3.52201C203.023 3.78759 203.427 4.15101 203.717 4.61227C204.007 5.07004 204.152 5.58721 204.152 6.16379C204.152 6.56215 204.077 6.95178 203.927 7.33267C203.78 7.71356 203.523 8.13813 203.156 8.60638C202.789 9.07114 202.279 9.63548 201.626 10.2994L199.492 12.5323V12.611H204.325V14H197.259Z" fill="#0F2552"/>
<line x1="28.4664" y1="36.8892" x2="306.805" y2="36.8892" stroke="#E4E5E7" stroke-width="0.843451"/>
<path d="M36.7536 56.279H38.0172L40.2142 61.6434H40.2951L42.4921 56.279H43.7557V63.18H42.765V58.1862H42.701L40.6657 63.1699H39.8435L37.8083 58.1828H37.7443V63.18H36.7536V56.279ZM51.264 59.7295C51.264 60.4663 51.1292 61.0998 50.8596 61.6299C50.5901 62.1578 50.2205 62.5644 49.751 62.8497C49.2838 63.1328 48.7525 63.2743 48.1572 63.2743C47.5597 63.2743 47.0261 63.1328 46.5566 62.8497C46.0894 62.5644 45.721 62.1567 45.4514 61.6266C45.1818 61.0964 45.0471 60.4641 45.0471 59.7295C45.0471 58.9927 45.1818 58.3603 45.4514 57.8324C45.721 57.3022 46.0894 56.8956 46.5566 56.6126C47.0261 56.3273 47.5597 56.1847 48.1572 56.1847C48.7525 56.1847 49.2838 56.3273 49.751 56.6126C50.2205 56.8956 50.5901 57.3022 50.8596 57.8324C51.1292 58.3603 51.264 58.9927 51.264 59.7295ZM50.2329 59.7295C50.2329 59.1679 50.1419 58.695 49.9599 58.3109C49.7802 57.9245 49.5331 57.6325 49.2186 57.4348C48.9064 57.2348 48.5526 57.1349 48.1572 57.1349C47.7596 57.1349 47.4047 57.2348 47.0924 57.4348C46.7802 57.6325 46.5331 57.9245 46.3511 58.3109C46.1714 58.695 46.0815 59.1679 46.0815 59.7295C46.0815 60.2911 46.1714 60.7651 46.3511 61.1515C46.5331 61.5356 46.7802 61.8276 47.0924 62.0276C47.4047 62.2252 47.7596 62.3241 48.1572 62.3241C48.5526 62.3241 48.9064 62.2252 49.2186 62.0276C49.5331 61.8276 49.7802 61.5356 49.9599 61.1515C50.1419 60.7651 50.2329 60.2911 50.2329 59.7295ZM58.1321 56.279V63.18H57.1751L53.6674 58.1188H53.6033V63.18H52.5621V56.279H53.5258L57.037 61.3469H57.101V56.279H58.1321Z" fill="black"/>
<path d="M79.533 57.1753V56.279H84.8738V57.1753H82.7206V63.1799H81.6828V57.1753H79.533ZM90.4918 56.279H91.5364V60.8179C91.5364 61.3008 91.4229 61.7288 91.196 62.1017C90.9692 62.4723 90.6502 62.7644 90.2391 62.9778C89.828 63.1889 89.3461 63.2945 88.7935 63.2945C88.2431 63.2945 87.7624 63.1889 87.3513 62.9778C86.9402 62.7644 86.6212 62.4723 86.3944 62.1017C86.1675 61.7288 86.054 61.3008 86.054 60.8179V56.279H87.0952V60.7336C87.0952 61.0459 87.1638 61.3233 87.3008 61.5659C87.4401 61.8085 87.6366 61.9995 87.8905 62.1387C88.1443 62.2758 88.4453 62.3443 88.7935 62.3443C89.144 62.3443 89.4461 62.2758 89.6999 62.1387C89.956 61.9995 90.1515 61.8085 90.2863 61.5659C90.4233 61.3233 90.4918 61.0459 90.4918 60.7336V56.279ZM93.0502 63.1799V56.279H97.3768V57.1753H94.0914V59.2779H97.151V60.1709H94.0914V62.2836H97.4172V63.1799H93.0502Z" fill="black"/>
<path d="M120.869 63.1799L118.956 56.279H120.051L121.395 61.6232H121.459L122.858 56.279H123.943L125.341 61.6266H125.405L126.746 56.279H127.845L125.927 63.1799H124.879L123.427 58.011H123.373L121.921 63.1799H120.869ZM128.794 63.1799V56.279H133.121V57.1753H129.835V59.2779H132.895V60.1709H129.835V62.2836H133.161V63.1799H128.794ZM136.745 63.1799H134.511V56.279H136.816C137.492 56.279 138.073 56.4171 138.558 56.6935C139.043 56.9675 139.415 57.3618 139.674 57.8762C139.934 58.3884 140.064 59.0028 140.064 59.7194C140.064 60.4382 139.933 61.056 139.67 61.5726C139.41 62.0893 139.032 62.4869 138.538 62.7655C138.044 63.0418 137.446 63.1799 136.745 63.1799ZM135.553 62.2702H136.688C137.214 62.2702 137.651 62.1713 137.999 61.9736C138.347 61.7737 138.608 61.485 138.781 61.1076C138.954 60.728 139.04 60.2652 139.04 59.7194C139.04 59.178 138.954 58.7186 138.781 58.3412C138.61 57.9638 138.355 57.6774 138.016 57.4819C137.677 57.2865 137.255 57.1888 136.752 57.1888H135.553V62.2702Z" fill="black"/>
<path d="M161.107 57.1753V56.279H166.448V57.1753H164.294V63.1799H163.257V57.1753H161.107ZM167.628 63.1799V56.279H168.669V59.2779H172.109V56.279H173.154V63.1799H172.109V60.1709H168.669V63.1799H167.628ZM179.108 56.279H180.153V60.8179C180.153 61.3008 180.039 61.7288 179.812 62.1017C179.585 62.4723 179.266 62.7644 178.855 62.9778C178.444 63.1889 177.962 63.2945 177.41 63.2945C176.859 63.2945 176.379 63.1889 175.968 62.9778C175.556 62.7644 175.238 62.4723 175.011 62.1017C174.784 61.7288 174.67 61.3008 174.67 60.8179V56.279H175.711V60.7336C175.711 61.0459 175.78 61.3233 175.917 61.5659C176.056 61.8085 176.253 61.9995 176.507 62.1387C176.761 62.2758 177.062 62.3443 177.41 62.3443C177.76 62.3443 178.062 62.2758 178.316 62.1387C178.572 61.9995 178.768 61.8085 178.903 61.5659C179.04 61.3233 179.108 61.0459 179.108 60.7336V56.279Z" fill="black"/>
<path d="M205.43 63.1799V56.279H209.851V57.3269H206.68V59.2004H209.548V60.2484H206.68V63.1799H205.43ZM210.99 63.1799V56.279H213.578C214.108 56.279 214.553 56.3711 214.912 56.5553C215.274 56.7395 215.547 56.9978 215.731 57.3303C215.917 57.6605 216.011 58.0458 216.011 58.4861C216.011 58.9286 215.916 59.3128 215.728 59.6385C215.541 59.962 215.266 60.2124 214.902 60.3899C214.538 60.5651 214.091 60.6527 213.561 60.6527H211.718V59.6149H213.392C213.702 59.6149 213.956 59.5722 214.154 59.4869C214.352 59.3992 214.498 59.2723 214.592 59.1061C214.689 58.9376 214.737 58.7309 214.737 58.4861C214.737 58.2412 214.689 58.0323 214.592 57.8593C214.495 57.6841 214.348 57.5516 214.151 57.4617C213.953 57.3696 213.698 57.3236 213.386 57.3236H212.24V63.1799H210.99ZM214.555 60.053L216.263 63.1799H214.868L213.19 60.053H214.555ZM218.412 56.279V63.1799H217.161V56.279H218.412Z" fill="black"/>
<path d="M248.527 58.0918C248.491 57.7728 248.343 57.5257 248.082 57.3505C247.822 57.1731 247.494 57.0843 247.098 57.0843C246.815 57.0843 246.57 57.1293 246.364 57.2191C246.157 57.3067 245.996 57.428 245.882 57.583C245.77 57.7358 245.713 57.9099 245.713 58.1053C245.713 58.2693 245.752 58.4108 245.828 58.5299C245.907 58.6489 246.009 58.7489 246.135 58.8298C246.263 58.9084 246.4 58.9747 246.546 59.0286C246.692 59.0803 246.832 59.1229 246.967 59.1566L247.641 59.3319C247.861 59.3858 248.087 59.4588 248.318 59.5509C248.55 59.643 248.764 59.7643 248.962 59.9148C249.159 60.0653 249.319 60.2518 249.44 60.4742C249.564 60.6965 249.626 60.9627 249.626 61.2727C249.626 61.6636 249.524 62.0107 249.322 62.314C249.122 62.6172 248.831 62.8565 248.45 63.0317C248.07 63.2069 247.611 63.2945 247.071 63.2945C246.555 63.2945 246.108 63.2125 245.73 63.0485C245.353 62.8845 245.057 62.652 244.844 62.351C244.631 62.0478 244.513 61.6883 244.49 61.2727H245.535C245.555 61.5221 245.636 61.7299 245.777 61.8961C245.921 62.0601 246.104 62.1825 246.327 62.2634C246.551 62.342 246.797 62.3813 247.065 62.3813C247.359 62.3813 247.621 62.3353 247.85 62.2432C248.081 62.1488 248.263 62.0186 248.396 61.8523C248.528 61.6838 248.594 61.4873 248.594 61.2626C248.594 61.0582 248.536 60.8909 248.419 60.7606C248.305 60.6303 248.149 60.5224 247.951 60.4371C247.755 60.3517 247.534 60.2765 247.287 60.2113L246.472 59.9889C245.919 59.8384 245.481 59.6171 245.157 59.3251C244.836 59.0331 244.676 58.6467 244.676 58.166C244.676 57.7684 244.783 57.4213 244.999 57.1248C245.215 56.8282 245.507 56.598 245.875 56.434C246.244 56.2678 246.659 56.1846 247.122 56.1846C247.589 56.1846 248.001 56.2666 248.359 56.4306C248.718 56.5946 249.001 56.8204 249.208 57.1079C249.414 57.3932 249.522 57.7212 249.531 58.0918H248.527ZM251.397 63.1799H250.292L252.775 56.279H253.978L256.462 63.1799H255.356L253.405 57.5325H253.352L251.397 63.1799ZM251.582 60.4775H255.168V61.3536H251.582V60.4775ZM256.302 57.1753V56.279H261.643V57.1753H259.49V63.1799H258.452V57.1753H256.302Z" fill="black"/>
<path d="M288.579 58.0918C288.544 57.7728 288.395 57.5257 288.135 57.3505C287.874 57.1731 287.546 57.0843 287.151 57.0843C286.868 57.0843 286.623 57.1293 286.416 57.2191C286.21 57.3067 286.049 57.428 285.934 57.583C285.822 57.7358 285.766 57.9099 285.766 58.1053C285.766 58.2693 285.804 58.4108 285.88 58.5299C285.959 58.6489 286.061 58.7489 286.187 58.8298C286.315 58.9084 286.452 58.9747 286.598 59.0286C286.744 59.0803 286.885 59.1229 287.019 59.1566L287.693 59.3319C287.913 59.3858 288.139 59.4588 288.371 59.5509C288.602 59.643 288.816 59.7643 289.014 59.9148C289.212 60.0653 289.371 60.2518 289.493 60.4742C289.616 60.6965 289.678 60.9627 289.678 61.2727C289.678 61.6636 289.577 62.0107 289.375 62.314C289.175 62.6172 288.884 62.8565 288.502 63.0317C288.122 63.2069 287.663 63.2945 287.124 63.2945C286.607 63.2945 286.16 63.2125 285.783 63.0485C285.405 62.8845 285.11 62.652 284.896 62.351C284.683 62.0478 284.565 61.6883 284.543 61.2727H285.587C285.607 61.5221 285.688 61.7299 285.83 61.8961C285.974 62.0601 286.157 62.1825 286.379 62.2634C286.604 62.342 286.85 62.3813 287.117 62.3813C287.411 62.3813 287.673 62.3353 287.902 62.2432C288.134 62.1488 288.316 62.0186 288.448 61.8523C288.581 61.6838 288.647 61.4873 288.647 61.2626C288.647 61.0582 288.588 60.8909 288.472 60.7606C288.357 60.6303 288.201 60.5224 288.003 60.4371C287.808 60.3517 287.587 60.2765 287.339 60.2113L286.524 59.9889C285.971 59.8384 285.533 59.6171 285.21 59.3251C284.889 59.0331 284.728 58.6467 284.728 58.166C284.728 57.7684 284.836 57.4213 285.051 57.1248C285.267 56.8282 285.559 56.598 285.928 56.434C286.296 56.2678 286.712 56.1846 287.174 56.1846C287.642 56.1846 288.054 56.2666 288.411 56.4306C288.77 56.5946 289.053 56.8204 289.26 57.1079C289.467 57.3932 289.575 57.7212 289.584 58.0918H288.579ZM295.36 56.279H296.405V60.8179C296.405 61.3008 296.291 61.7288 296.064 62.1017C295.837 62.4723 295.518 62.7644 295.107 62.9778C294.696 63.1889 294.214 63.2945 293.662 63.2945C293.111 63.2945 292.631 63.1889 292.219 62.9778C291.808 62.7644 291.489 62.4723 291.263 62.1017C291.036 61.7288 290.922 61.3008 290.922 60.8179V56.279H291.963V60.7336C291.963 61.0459 292.032 61.3233 292.169 61.5659C292.308 61.8085 292.505 61.9995 292.759 62.1387C293.012 62.2758 293.313 62.3443 293.662 62.3443C294.012 62.3443 294.314 62.2758 294.568 62.1387C294.824 61.9995 295.02 61.8085 295.154 61.5659C295.291 61.3233 295.36 61.0459 295.36 60.7336V56.279ZM303.488 56.279V63.1799H302.531L299.024 58.1188H298.96V63.1799H297.918V56.279H298.882L302.393 61.3469H302.457V56.279H303.488Z" fill="black"/>
<circle cx="47.444" cy="93.1896" r="10.5431" fill="#EDEFF1"/>
<circle cx="88.5622" cy="93.1896" r="10.5431" fill="#BFDAF7"/>
<circle cx="129.68" cy="93.1896" r="10.5431" fill="#EDEFF1"/>
<circle cx="170.799" cy="93.1896" r="10.5431" fill="#EDEFF1"/>
<circle cx="211.917" cy="93.1896" r="10.5431" fill="#EDEFF1"/>
<circle cx="253.035" cy="93.1896" r="10.5431" fill="#BFDAF7"/>
<circle cx="294.153" cy="93.1896" r="10.5431" fill="#EDEFF1"/>
<circle cx="47.444" cy="132.199" r="10.5431" fill="#EDEFF1"/>
<circle cx="88.5622" cy="132.199" r="10.5431" fill="#EDEFF1"/>
<circle cx="128.626" cy="131.145" r="10.5431" fill="#BFDAF7"/>
<circle cx="170.799" cy="132.199" r="10.5431" fill="#EDEFF1"/>
<circle cx="211.917" cy="132.199" r="10.5431" fill="#EDEFF1"/>
<circle cx="253.035" cy="132.199" r="10.5431" fill="#EDEFF1"/>
<circle cx="294.153" cy="132.199" r="10.5431" fill="#EDEFF1"/>
<circle cx="47.444" cy="212.327" r="10.5431" fill="#EDEFF1"/>
<circle cx="88.5622" cy="212.327" r="10.5431" fill="#EDEFF1"/>
<circle cx="129.68" cy="212.327" r="10.5431" fill="#EDEFF1"/>
<circle cx="170.799" cy="212.327" r="10.5431" fill="#BFDAF7"/>
<circle cx="211.917" cy="212.327" r="10.5431" fill="#EDEFF1"/>
<circle cx="253.035" cy="212.327" r="10.5431" fill="#BFDAF7"/>
<circle cx="294.153" cy="212.327" r="10.5431" fill="#EDEFF1"/>
<circle cx="47.444" cy="250.282" r="10.5431" fill="#EDEFF1"/>
<circle cx="88.5622" cy="250.282" r="10.5431" fill="#EDEFF1"/>
<circle cx="129.68" cy="250.282" r="10.5431" fill="#EDEFF1"/>
<circle cx="170.799" cy="250.282" r="10.5431" fill="#EDEFF1"/>
<circle cx="211.917" cy="250.282" r="10.5431" fill="#EDEFF1"/>
<circle cx="253.035" cy="250.282" r="10.5431" fill="#EDEFF1"/>
<circle cx="294.153" cy="250.282" r="10.5431" fill="#EDEFF1"/>
<rect x="70.6389" y="155.394" width="240.383" height="32.6837" rx="16.3419" fill="#FFCE51" fill-opacity="0.2"/>
<rect x="29.5209" y="196.512" width="75.9106" height="32.6837" rx="16.3419" fill="#FFCE51" fill-opacity="0.2"/>
<circle cx="47.444" cy="172.263" r="10.5431" fill="#EDEFF1"/>
<circle cx="89.0896" cy="171.736" r="12.1246" fill="#BFDAF7"/>
<circle cx="130.208" cy="171.736" r="12.1246" fill="#BFDAF7"/>
<circle cx="171.326" cy="171.736" r="12.1246" fill="#BFDAF7"/>
<circle cx="212.444" cy="171.736" r="12.1246" fill="#BFDAF7"/>
<g clip-path="url(#clip0_6_3129)">
<ellipse cx="90.0777" cy="173.713" rx="2.47105" ry="3.45946" fill="#FFCE51"/>
<path d="M94.0182 171.967C92.9837 169.278 89.3002 169.133 90.1898 165.226C90.2556 164.936 89.9459 164.712 89.6955 164.863C87.3036 166.273 85.5837 169.1 87.0268 172.803C87.1454 173.107 86.7896 173.39 86.5326 173.192C85.3399 172.289 85.2147 170.991 85.3201 170.062C85.3597 169.72 84.9116 169.555 84.7205 169.838C84.2724 170.523 83.8177 171.63 83.8177 173.298C84.0681 176.988 87.185 178.121 88.3052 178.266C89.9064 178.47 91.6394 178.174 92.8848 177.034C94.2554 175.762 94.7562 173.733 94.0182 171.967ZM87.9032 175.281C88.8521 175.05 89.3397 174.365 89.4715 173.759C89.689 172.817 88.8389 171.894 89.4122 170.405C89.6296 171.637 91.5669 172.408 91.5669 173.752C91.6197 175.419 89.8142 176.849 87.9032 175.281Z" fill="#FF7324"/>
</g>
<g clip-path="url(#clip1_6_3129)">
<ellipse cx="131.196" cy="173.713" rx="2.47105" ry="3.45946" fill="#FFCE51"/>
<path d="M135.137 171.967C134.102 169.278 130.419 169.133 131.308 165.226C131.374 164.936 131.064 164.712 130.814 164.863C128.422 166.273 126.702 169.1 128.145 172.803C128.264 173.107 127.908 173.39 127.651 173.192C126.458 172.289 126.333 170.991 126.439 170.062C126.478 169.72 126.03 169.555 125.839 169.838C125.391 170.523 124.936 171.63 124.936 173.298C125.187 176.988 128.303 178.121 129.424 178.266C131.025 178.47 132.758 178.174 134.003 177.034C135.374 175.762 135.875 173.733 135.137 171.967ZM129.022 175.281C129.971 175.05 130.458 174.365 130.59 173.759C130.807 172.817 129.957 171.894 130.531 170.405C130.748 171.637 132.685 172.408 132.685 173.752C132.738 175.419 130.933 176.849 129.022 175.281Z" fill="#FF7324"/>
</g>
<g clip-path="url(#clip2_6_3129)">
<ellipse cx="172.314" cy="173.713" rx="2.47105" ry="3.45946" fill="#FFCE51"/>
<path d="M176.255 171.967C175.22 169.278 171.537 169.133 172.426 165.226C172.492 164.936 172.183 164.712 171.932 164.863C169.54 166.273 167.82 169.1 169.263 172.803C169.382 173.107 169.026 173.39 168.769 173.192C167.576 172.289 167.451 170.991 167.557 170.062C167.596 169.72 167.148 169.555 166.957 169.838C166.509 170.523 166.054 171.63 166.054 173.298C166.305 176.988 169.422 178.121 170.542 178.266C172.143 178.47 173.876 178.174 175.121 177.034C176.492 175.762 176.993 173.733 176.255 171.967ZM170.14 175.281C171.089 175.05 171.576 174.365 171.708 173.759C171.926 172.817 171.075 171.894 171.649 170.405C171.866 171.637 173.804 172.408 173.804 173.752C173.856 175.419 172.051 176.849 170.14 175.281Z" fill="#FF7324"/>
</g>
<g clip-path="url(#clip3_6_3129)">
<ellipse cx="213.432" cy="173.713" rx="2.47105" ry="3.45946" fill="#FFCE51"/>
<path d="M217.373 171.967C216.338 169.278 212.655 169.133 213.544 165.226C213.61 164.936 213.301 164.712 213.05 164.863C210.658 166.273 208.938 169.1 210.382 172.803C210.5 173.107 210.144 173.39 209.887 173.192C208.695 172.289 208.569 170.991 208.675 170.062C208.714 169.72 208.266 169.555 208.075 169.838C207.627 170.523 207.172 171.63 207.172 173.298C207.423 176.988 210.54 178.121 211.66 178.266C213.261 178.47 214.994 178.174 216.24 177.034C217.61 175.762 218.111 173.733 217.373 171.967ZM211.258 175.281C212.207 175.05 212.694 174.365 212.826 173.759C213.044 172.817 212.194 171.894 212.767 170.405C212.984 171.637 214.922 172.408 214.922 173.752C214.974 175.419 213.169 176.849 211.258 175.281Z" fill="#FF7324"/>
</g>
<circle cx="253.562" cy="171.736" r="12.1246" fill="#BFDAF7"/>
<g clip-path="url(#clip4_6_3129)">
<ellipse cx="254.551" cy="173.713" rx="2.47105" ry="3.45946" fill="#FFCE51"/>
<path d="M258.491 171.966C257.457 169.278 253.773 169.133 254.663 165.225C254.729 164.936 254.419 164.712 254.169 164.863C251.777 166.273 250.057 169.1 251.5 172.803C251.618 173.106 251.263 173.39 251.006 173.192C249.813 172.289 249.688 170.991 249.793 170.062C249.833 169.719 249.385 169.555 249.194 169.838C248.745 170.523 248.291 171.63 248.291 173.298C248.541 176.988 251.658 178.121 252.778 178.266C254.379 178.47 256.112 178.174 257.358 177.034C258.728 175.762 259.229 173.732 258.491 171.966ZM252.376 175.281C253.325 175.05 253.813 174.365 253.945 173.759C254.162 172.817 253.312 171.894 253.885 170.405C254.103 171.637 256.04 172.408 256.04 173.752C256.093 175.419 254.287 176.849 252.376 175.281Z" fill="#FF7324"/>
</g>
<circle cx="294.681" cy="171.736" r="12.1246" fill="#BFDAF7"/>
<g clip-path="url(#clip5_6_3129)">
<ellipse cx="295.669" cy="173.713" rx="2.47105" ry="3.45946" fill="#FFCE51"/>
<path d="M299.609 171.966C298.575 169.278 294.891 169.133 295.781 165.225C295.847 164.936 295.537 164.712 295.287 164.863C292.895 166.273 291.175 169.1 292.618 172.803C292.736 173.106 292.381 173.39 292.124 173.192C290.931 172.289 290.806 170.991 290.911 170.062C290.951 169.719 290.503 169.555 290.312 169.838C289.863 170.523 289.409 171.63 289.409 173.298C289.659 176.988 292.776 178.121 293.896 178.266C295.497 178.47 297.23 178.174 298.476 177.034C299.847 175.762 300.347 173.732 299.609 171.966ZM293.494 175.281C294.443 175.05 294.931 174.365 295.063 173.759C295.28 172.817 294.43 171.894 295.003 170.405C295.221 171.637 297.158 172.408 297.158 173.752C297.211 175.419 295.405 176.849 293.494 175.281Z" fill="#FF7324"/>
</g>
<circle cx="46.917" cy="212.854" r="12.1246" fill="#BFDAF7"/>
<g clip-path="url(#clip6_6_3129)">
<ellipse cx="47.9054" cy="214.831" rx="2.47105" ry="3.45946" fill="#FFCE51"/>
<path d="M51.8459 213.085C50.8113 210.396 47.1278 210.251 48.0174 206.344C48.0833 206.054 47.7736 205.83 47.5232 205.981C45.1312 207.391 43.4114 210.218 44.8545 213.922C44.9731 214.225 44.6172 214.508 44.3602 214.31C43.1676 213.408 43.0424 212.109 43.1478 211.18C43.1873 210.838 42.7392 210.673 42.5481 210.956C42.1001 211.642 41.6454 212.749 41.6454 214.416C41.8958 218.106 45.0126 219.239 46.1328 219.384C47.734 219.588 49.4671 219.292 50.7125 218.152C52.0831 216.88 52.5839 214.851 51.8459 213.085ZM45.7308 216.399C46.6797 216.169 47.1674 215.483 47.2991 214.877C47.5166 213.935 46.6666 213.012 47.2398 211.523C47.4573 212.755 49.3946 213.526 49.3946 214.87C49.4473 216.538 47.6418 217.967 45.7308 216.399Z" fill="#FF7324"/>
</g>
<circle cx="88.0351" cy="212.854" r="12.1246" fill="#BFDAF7"/>
<g clip-path="url(#clip7_6_3129)">
<ellipse cx="89.0234" cy="214.831" rx="2.47105" ry="3.45946" fill="#FFCE51"/>
<path d="M92.9639 213.085C91.9294 210.396 88.2459 210.251 89.1354 206.344C89.2013 206.054 88.8916 205.83 88.6412 205.981C86.2493 207.391 84.5294 210.218 85.9725 213.922C86.0911 214.225 85.7353 214.508 85.4783 214.31C84.2856 213.408 84.1604 212.109 84.2658 211.18C84.3054 210.838 83.8573 210.673 83.6662 210.956C83.2181 211.642 82.7634 212.749 82.7634 214.416C83.0138 218.106 86.1306 219.239 87.2508 219.384C88.8521 219.588 90.5851 219.292 91.8305 218.152C93.2011 216.88 93.7019 214.851 92.9639 213.085ZM86.8489 216.399C87.7978 216.169 88.2854 215.483 88.4172 214.877C88.6346 213.935 87.7846 213.012 88.3579 211.523C88.5753 212.755 90.5126 213.526 90.5126 214.87C90.5653 216.538 88.7598 217.967 86.8489 216.399Z" fill="#FF7324"/>
</g>
<defs>
<clipPath id="clip0_6_3129">
<rect width="15.8147" height="15.8147" fill="white" transform="translate(81.182 163.829)"/>
</clipPath>
<clipPath id="clip1_6_3129">
<rect width="15.8147" height="15.8147" fill="white" transform="translate(122.3 163.829)"/>
</clipPath>
<clipPath id="clip2_6_3129">
<rect width="15.8147" height="15.8147" fill="white" transform="translate(163.419 163.829)"/>
</clipPath>
<clipPath id="clip3_6_3129">
<rect width="15.8147" height="15.8147" fill="white" transform="translate(204.537 163.829)"/>
</clipPath>
<clipPath id="clip4_6_3129">
<rect width="15.8147" height="15.8147" fill="white" transform="translate(245.655 163.829)"/>
</clipPath>
<clipPath id="clip5_6_3129">
<rect width="15.8147" height="15.8147" fill="white" transform="translate(286.773 163.829)"/>
</clipPath>
<clipPath id="clip6_6_3129">
<rect width="15.8147" height="15.8147" fill="white" transform="translate(39.0096 204.947)"/>
</clipPath>
<clipPath id="clip7_6_3129">
<rect width="15.8147" height="15.8147" fill="white" transform="translate(80.1277 204.947)"/>
</clipPath>
</defs>
</svg>
